<?xml version="1.0" encoding="UTF-8"?>
<svg xmlns="http://www.w3.org/2000/svg" version="1.1" viewBox="0 0 1385.3 239.75">
  <!-- Generator: Adobe Illustrator 29.8.5, SVG Export Plug-In . SVG Version: 2.1.1 Build 2)  -->
  <defs>
    <style>
      .st0 {
        font-family: Nobel-Black, Nobel;
        font-size: 110px;
        font-weight: 800;
      }

      .st1 {
        font-family: EssonnesText-Bold, Essonnes;
        font-size: 205.94px;
        font-weight: 700;
      }

      .st2 {
        display: none;
      }
    </style>
  </defs>
  <g id="Layer_1">
    <g>
      <path d="M0,205.59c6.04-2.74,10.63-7.51,13.79-14.3,3.16-6.79,5.83-14.71,8.03-23.77L53.09,29.43c1.51-5.9,2.4-10.12,2.68-12.66.27-2.54.41-4.22.41-5.04,0-3.7-.82-7.61-2.47-11.73h50.42l42.6,216.29c1.1,5.49,2.71,9.53,4.84,12.14,2.12,2.6,4.35,3.91,6.69,3.91s4.35-1.37,6.07-4.12c1.71-2.75,2.57-6.72,2.57-11.94V26.55c0-4.8-.34-9.43-1.03-13.89-.69-4.46-2.4-8.68-5.14-12.66h51.99c12.47,0,23.78,2.81,33.93,8.44,10.15,5.63,18.79,13.17,25.93,22.64,7.13,9.47,12.62,20.41,16.46,32.82,3.84,12.42,5.76,25.42,5.76,39,0,11.94-1.58,23.6-4.73,34.98-3.16,11.39-7.68,21.75-13.58,31.08-5.9,9.33-13,17.25-21.3,23.77-8.3,6.52-17.6,10.87-27.89,13.07,2.86-1.23,5.17-5.48,6.94-12.76,1.77-7.27,3.16-16.36,4.19-27.27,1.02-10.91,1.74-22.91,2.14-36.01.41-13.1.61-26.17.61-39.2,0-12.07-.2-22.87-.61-32.41-.41-9.53-1.16-17.63-2.24-24.28-1.09-6.65-2.62-11.76-4.59-15.33-1.97-3.57-4.46-5.35-7.45-5.35s-5.07,1.78-6.64,5.35c-1.57,3.57-2.76,8.71-3.57,15.43-.82,6.72-1.3,14.85-1.43,24.39-.14,9.54-.2,20.27-.2,32.21v84.58c0,9.88-1.82,18.8-5.45,26.75-3.64,7.95-8.44,14.75-14.41,20.37-5.97,5.62-12.69,9.94-20.17,12.96-7.48,3.02-15.06,4.53-22.74,4.53-6.04,0-11.94-.96-17.7-2.88-5.76-1.92-11.05-4.91-15.85-8.95-4.8-4.05-9.02-9.19-12.66-15.43-3.64-6.24-6.35-13.68-8.13-22.33l-8.64-43.01c-.96-4.12-2.85-7.44-5.66-9.98-2.81-2.54-6-4.73-9.57-6.59-3.57-1.85-7.31-3.63-11.22-5.35-3.91-1.71-7.38-3.88-10.39-6.48,1.37,7.82,3.02,15.4,4.94,22.74,1.92,7.34,3.7,14.24,5.35,20.68,1.51,6.45,2.5,11.56,2.99,15.33.48,3.78.72,6.69.72,8.75,0,1.92-.17,4.01-.52,6.28-.34,2.26-1.23,4.36-2.67,6.28-1.44,1.92-3.53,3.53-6.28,4.84-2.75,1.3-6.52,1.95-11.32,1.95H0ZM55.56,52.27c-3.02,7.82-4.87,14.82-5.56,20.99-.69,6.17-1.03,11.52-1.03,16.05,0,1.78.03,3.53.1,5.25.07,1.72.17,3.47.31,5.25.55,4.8,2.12,8.54,4.73,11.22,2.6,2.67,5.69,4.97,9.26,6.89,3.57,1.92,7.37,3.74,11.42,5.45,4.04,1.72,7.72,3.95,11.01,6.69-1.24-7.68-2.54-15.33-3.91-22.94-1.37-7.62-2.78-14.82-4.22-21.61-1.44-6.79-2.92-12.89-4.42-18.32-1.51-5.42-2.95-9.78-4.32-13.07-2.33-4.94-4.8-7.41-7.41-7.41s-4.6,1.85-5.97,5.56Z"/>
      <path d="M357.25,0c4.8,3.57,7.92,7.96,9.36,13.17,1.44,5.22,2.16,10.7,2.16,16.46,0,1.65-.14,4.77-.41,9.36-.28,4.6-1.44,11.29-3.5,20.06-1.1,4.39-2.23,8.82-3.4,13.27-1.17,4.46-2.44,8.95-3.81,13.48-.14.28-.2.51-.2.72s-.07.45-.21.72l-.21.82c-.14.28-.2.48-.2.62s-.07.34-.21.62l-.21.82-.62,2.47-.41.82c0,.55-.07.96-.2,1.24l-.21,1.03c-.14.14-.21.28-.21.41l-.2.82c-.14.28-.21.48-.21.62s-.07.34-.21.62l-.2.82c-.14.28-.21.48-.21.62s-.07.34-.21.62l-.2.82c-.14.41-.28.82-.41,1.23-.14.41-.28.82-.41,1.24l-.2,1.03c-.14.28-.21.69-.21,1.23l-.41.82-.62,2.47-.21.82c-.14.28-.21.48-.21.62s-.07.34-.2.62l-.21.82c-.14.28-.2.48-.2.62s-.07.35-.21.62c-3.29,11.39-5.8,22.3-7.51,32.72-1.72,10.43-1.75,19.59-.1,27.47,1.65,7.89,5.56,14.2,11.73,18.93,6.17,4.73,15.57,7.1,28.19,7.1,4.39,0,8.47-.82,12.24-2.47,3.77-1.65,7.03-4.12,9.78-7.41,2.74-3.29,4.9-7.41,6.48-12.35,1.57-4.94,2.37-10.63,2.37-17.08V26.34c0-4.8-.17-9.4-.51-13.79-.35-4.39-1.89-8.57-4.63-12.55h52.68c-2.75,3.98-4.32,8.13-4.73,12.45-.41,4.32-.62,8.95-.62,13.89v179.24h-73.06c-9.88,0-19.24-2.06-28.09-6.17-8.85-4.12-16.57-9.78-23.15-16.98-6.58-7.2-11.83-15.71-15.74-25.52-3.91-9.81-5.86-20.41-5.86-31.79V26.34c0-4.8-.21-9.4-.62-13.79-.41-4.39-1.99-8.57-4.73-12.55h53.3Z"/>
      <path d="M481.75,29.63c0-5.9-.48-11.42-1.44-16.57-.96-5.14-3.36-9.5-7.2-13.07h60.92c2.6,1.78,4.9,4.22,6.89,7.3,1.99,3.08,3.19,6.34,3.6,9.76.14.69.21,1.44.21,2.26v2.26c0,6.58-2.06,13.43-6.17,20.55s-9.74,14.39-16.88,21.78c-3.43,3.56-6.83,7.13-10.19,10.69-3.36,3.56-6.48,7.2-9.37,10.89-2.88,3.7-5.35,7.51-7.41,11.41-2.06,3.9-3.43,7.91-4.11,12.02-.55,3.29-.86,6.1-.93,8.43-.07,2.33-.1,3.84-.1,4.52,0,3.84.44,7.98,1.34,12.44.89,4.45,2.6,8.6,5.14,12.43,2.54,3.84,6.03,7.02,10.49,9.56,4.46,2.53,10.25,3.8,17.39,3.8h56.59c3.71,0,6.86-.27,9.47-.82,2.6-.55,4.76-1.47,6.48-2.78,1.71-1.3,3.09-3.05,4.12-5.25,1.03-2.19,1.82-4.94,2.37-8.23.14-1.78,1.16-2.67,3.09-2.67.82,0,1.54.31,2.16.93s.93,1.34.93,2.16v62.15h-135.62c3.84-3.71,6.18-8.13,7-13.27.82-5.14,1.24-10.46,1.24-15.95V29.63Z"/>
      <path d="M583.83,65.03c-1.92-.27-2.88-1.3-2.88-3.09V0h188.71c2.74,1.92,5.07,4.39,7,7.41,1.92,3.02,3.09,6.24,3.5,9.67.82,6.72-.28,12.83-3.29,18.31-3.02,5.49-6.93,10.7-11.73,15.64-4.8,4.94-9.91,9.74-15.33,14.4-5.42,4.67-10.19,9.47-14.3,14.41s-7,10.22-8.64,15.85c-1.65,5.63-1.03,11.87,1.85,18.73.69-5.9,1.82-10.97,3.39-15.23,1.58-4.25,3.88-7.75,6.9-10.5,3.02-2.74,6.75-4.73,11.22-5.97,4.46-1.24,9.91-1.85,16.36-1.85h80.47c1.78,0,3.09-.34,3.91-1.03-4.12-5.07-8.88-9.91-14.3-14.51-5.42-4.59-10.53-9.33-15.33-14.2-4.8-4.87-8.71-10.05-11.73-15.54-3.02-5.49-4.12-11.66-3.29-18.52.55-3.43,1.71-6.65,3.5-9.67,1.78-3.02,4.18-5.49,7.2-7.41h53.71c-2.75,3.98-4.32,8.2-4.73,12.66-.41,4.46-.62,9.09-.62,13.89v152.49c0,4.94.2,9.6.62,13.99.41,4.39,1.99,8.58,4.73,12.55h-53.71c-3.02-1.92-5.42-4.39-7.2-7.41-1.78-3.02-2.95-6.24-3.5-9.67-.82-6.72.24-12.83,3.19-18.32,2.95-5.49,6.79-10.63,11.52-15.43,4.73-4.8,9.77-9.53,15.13-14.2,5.35-4.66,10.08-9.47,14.2-14.41,4.12-4.94,7.06-10.29,8.85-16.05s1.37-12.21-1.23-19.34c-.69,5.9-1.85,10.91-3.5,15.02-1.65,4.12-3.98,7.48-7,10.08-3.02,2.61-6.76,4.53-11.22,5.76-4.46,1.23-9.85,1.85-16.15,1.85h-80.46c-1.78,0-3.36.48-4.73,1.44,4.12,5.22,8.95,10.15,14.51,14.82,5.56,4.67,10.73,9.47,15.54,14.41,4.8,4.94,8.75,10.19,11.83,15.74,3.09,5.56,4.22,11.77,3.4,18.62-.41,3.43-1.58,6.66-3.5,9.67-1.92,3.02-4.26,5.49-7,7.41h-54.95c2.74-3.98,4.46-8.13,5.14-12.45.69-4.32,1.03-8.95,1.03-13.89v-110.92c0-4.53-.38-8.26-1.13-11.22-.76-2.95-1.99-5.28-3.71-7-1.72-1.71-3.98-2.91-6.79-3.6-2.81-.69-6.35-1.03-10.6-1.03h-17.08c-9.33,0-15.64,1.78-18.93,5.35-3.29,3.57-4.6,8.41-3.91,14.51.69,6.11,2.85,13.17,6.48,21.2,3.63,8.02,7.72,16.5,12.24,25.42,4.53,8.92,9.02,17.94,13.48,27.06,4.46,9.13,7.85,17.87,10.19,26.24,2.33,8.37,3.09,16.05,2.26,23.05s-4.25,12.76-10.29,17.29h-57.42c4.39-3.84,7.1-8.44,8.13-13.79s1.54-10.97,1.54-16.88V45.48h-35.81c-7.41,0-12.79,1.13-16.15,3.4-3.36,2.26-5.45,6.76-6.28,13.48-.14.82-.51,1.51-1.13,2.06-.62.55-1.34.76-2.16.62Z"/>
      <path d="M958.98,205.59c-11.8,0-22.71-2.85-32.72-8.54-10.02-5.69-18.66-13.27-25.93-22.74-7.27-9.47-12.96-20.4-17.08-32.82-4.12-12.41-6.17-25.34-6.17-38.79s2.09-26.82,6.28-39.31c4.18-12.48,9.91-23.39,17.18-32.72,7.27-9.33,15.91-16.77,25.93-22.33,10.01-5.56,20.85-8.33,32.51-8.33,10.56,0,20.78,2.5,30.66,7.51,9.88,5.01,18.62,12.04,26.24,21.09,7.61,9.06,13.72,19.86,18.32,32.41,4.59,12.55,6.89,26.44,6.89,41.67,0,14.41-2.2,27.88-6.58,40.44-4.39,12.55-10.33,23.46-17.8,32.72-7.48,9.26-16.19,16.53-26.13,21.81-9.95,5.28-20.48,7.92-31.59,7.92ZM943.75,9.06c-4.11.82-7.58,3.05-10.39,6.69-2.81,3.64-5.14,8.16-7,13.58-1.85,5.42-3.22,11.49-4.12,18.21-.89,6.72-1.37,13.62-1.44,20.68-.07,7.07.17,14.03.72,20.89.55,6.86,1.37,13.1,2.47,18.73,2.47,13.45,5.48,25.72,9.05,36.84,3.57,11.11,7.58,20.58,12.04,28.4,4.46,7.82,9.23,13.68,14.3,17.59,5.07,3.91,10.36,5.32,15.85,4.22,4.66-.96,8.5-3.46,11.52-7.51,3.02-4.04,5.35-9.05,7-15.02,1.65-5.97,2.74-12.55,3.29-19.76.55-7.2.75-14.41.62-21.61-.14-7.2-.52-14.1-1.13-20.68-.62-6.58-1.27-12.28-1.95-17.08-1.78-10.7-4.32-21.3-7.61-31.79-3.29-10.5-7.17-19.82-11.63-27.99-4.46-8.16-9.37-14.54-14.71-19.14-5.35-4.59-10.98-6.34-16.88-5.25ZM1043.98,39.1c7.41-12.07,16.63-21.61,27.68-28.6,11.04-7,23.43-10.5,37.15-10.5,10.42,0,20.58,2.5,30.46,7.51,9.88,5.01,18.62,12.01,26.24,20.99,7.61,8.99,13.72,19.79,18.32,32.41,4.59,12.62,6.89,26.55,6.89,41.78,0,14.41-2.2,27.85-6.58,40.33-4.39,12.49-10.33,23.36-17.8,32.62-7.48,9.26-16.15,16.53-26.03,21.81-9.88,5.28-20.37,7.92-31.49,7.92-13.72,0-26.07-3.53-37.04-10.6-10.98-7.06-20.17-16.63-27.57-28.71,5.48-8.78,9.77-18.52,12.86-29.22,3.09-10.7,4.63-22.09,4.63-34.16s-1.58-24.04-4.73-34.68c-3.16-10.63-7.48-20.27-12.96-28.91ZM1093.16,9.06c-3.98.82-7.38,3.05-10.19,6.69-2.81,3.64-5.14,8.13-7,13.48-1.85,5.35-3.19,11.39-4.01,18.11-.82,6.72-1.31,13.62-1.44,20.68-.14,7.07.07,14.03.62,20.89.55,6.86,1.37,13.1,2.47,18.73,2.47,13.31,5.49,25.55,9.05,36.73,3.57,11.18,7.58,20.68,12.04,28.5,4.46,7.82,9.22,13.69,14.3,17.6,5.08,3.91,10.36,5.32,15.85,4.22,4.66-.96,8.47-3.46,11.42-7.51,2.95-4.04,5.28-9.05,7-15.02,1.71-5.97,2.88-12.55,3.5-19.76.62-7.2.86-14.4.72-21.61-.14-7.2-.52-14.1-1.13-20.68-.62-6.59-1.34-12.28-2.16-17.08-1.65-10.56-4.12-21.13-7.41-31.69-3.29-10.56-7.2-19.93-11.73-28.09-4.53-8.16-9.5-14.54-14.92-19.14-5.42-4.59-11.08-6.28-16.98-5.04Z"/>
      <path d="M1196.26,205.59c2.74-3.98,4.49-8.16,5.25-12.55.75-4.39,1.13-9.05,1.13-13.99V26.34c0-4.8-.38-9.4-1.13-13.79-.76-4.39-2.51-8.57-5.25-12.55h52.27c12.62,0,24.01,2.81,34.16,8.44,10.15,5.63,18.76,13.14,25.83,22.53,7.06,9.4,12.52,20.31,16.36,32.72,3.84,12.42,5.76,25.42,5.76,39s-1.95,26.34-5.86,38.69c-3.91,12.35-9.47,23.29-16.67,32.82-7.2,9.54-15.85,17.15-25.93,22.84-10.08,5.69-21.3,8.54-33.65,8.54h-52.27ZM1263.14,12.97c-2.61,0-4.73,1.85-6.38,5.56-1.65,3.71-2.95,8.95-3.91,15.74-.96,6.79-1.65,14.96-2.06,24.49-.41,9.54-.62,20.14-.62,31.79,0,26.07.82,45.83,2.47,59.27,1.65,13.45,5.14,20.17,10.49,20.17s9.16-6.69,11.01-20.06c1.85-13.38,2.78-33.17,2.78-59.37,0-11.66-.21-22.26-.62-31.79-.41-9.53-1.13-17.7-2.16-24.49-1.03-6.79-2.44-12.04-4.22-15.74-1.78-3.7-4.05-5.56-6.79-5.56Z"/>
    </g>
    <g>
      <path d="M1345.24,35.04V14.13h-7.47v-4.26h20v4.26h-7.45v20.91h-5.08Z"/>
      <path d="M1360.99,35.04V9.87h7.61l4.57,17.17,4.51-17.17h7.62v25.17h-4.72V15.23l-4.99,19.81h-4.89l-4.98-19.81v19.81h-4.72Z"/>
    </g>
  </g>
  <g id="Layer_3" class="st2">
    <g>
      <path d="M11.43,187.01c12.97-4.74,14.62-7.83,21.42-27.8l39.34-113.89c.41-1.03,1.24-1.65,2.27-1.65h15.24c1.24,0,1.65.41,2.06,1.65l47.99,135.51c2.27,6.18,3.09,6.59,9.27,6.59h4.94c.62,0,1.03.82,1.03,3.29s-.41,3.29-1.03,3.29h-67.55c-.62,0-1.03-.82-1.03-3.29s.41-3.29,1.24-3.29h19.98l-14.42-40.98h-46.13l-4.53,13.39c-6.59,19.36-6.59,22.45,10.71,27.6,1.24.41,1.44.82,1.44,3.29s-.41,3.29-1.24,3.29H10.81c-.82,0-1.03-.82-1.03-3.29s.62-3.29,1.65-3.71ZM48.3,139.85h41.6l-14.21-40.16c-2.47-7-4.32-12.97-5.77-19.15h-.82l-20.8,59.31Z"/>
      <path d="M162.39,187.42h8.86c6.18,0,6.8-.62,6.8-6.8V59.12c0-6.18-.62-6.8-6.8-6.8h-8.44c-.82,0-1.24-.82-1.24-3.29s.41-3.29,1.24-3.29h69.61c36.04,0,73.94,29.24,73.94,74.14s-31.1,74.14-73.94,74.14h-70.02c-.82,0-1.24-.82-1.24-3.29s.41-3.29,1.24-3.29ZM255.06,61.59c-7-7-14.62-9.27-25.74-9.27h-8.86c-6.18,0-6.8.62-6.8,6.8v121.51c0,6.18.62,6.8,6.8,6.8h8.86c11.12,0,18.74-2.27,25.74-9.27,8.65-8.65,12.77-22.04,12.77-58.28s-4.12-49.63-12.77-58.28Z"/>
      <path d="M322.61,45.73h66.52c1.03,0,1.44.82,1.44,3.29s-.41,3.29-1.44,3.29h-11.53c-6.18,0-6.8.62-6.8,6.8v88.56c0,26.77,6.8,37.69,29.45,37.69s35.83-10.92,35.83-37.69v-66.93c0-20.39-.82-22.24-20.18-28.42-1.24-.41-1.65-.82-1.65-3.29s.41-3.29,1.44-3.29h47.16c1.03,0,1.44.82,1.44,3.29s-.41,2.88-1.44,3.29c-17.3,6.18-18.33,8.03-18.33,28.42v68.17c0,32.75-19.36,47.57-54.58,47.57-32.95,0-54.78-14.83-54.78-47.57V59.12c0-6.18-.62-6.8-6.8-6.8h-5.56c-1.24,0-1.65-.82-1.65-3.29s.41-3.29,1.44-3.29Z"/>
      <path d="M473.57,187.42h8.86c6.18,0,6.8-.62,6.8-6.8V59.12c0-6.18-.62-6.8-6.8-6.8h-8.24c-.82,0-1.24-.82-1.24-3.29s.41-3.29,1.24-3.29h71.67c.82,0,1.24.82,1.24,3.29s-.41,3.29-1.24,3.29h-14.21c-6.18,0-6.8.62-6.8,6.8v121.51c0,6.18.62,6.8,6.8,6.8h10.71c24.1,0,37.69-25.54,48.6-50.25.41-.82.82-1.03,3.5-1.03,2.47,0,3.29.41,3.29,1.24v52.72c0,2.88-.62,3.91-3.5,3.91h-120.69c-.82,0-1.24-.82-1.24-3.29s.41-3.29,1.24-3.29Z"/>
      <path d="M611.67,187.42h17.3c6.18,0,6.8-.62,6.8-6.8V52.32h-5.35c-20.59,0-27.8,14.42-40.57,45.31-.41.82-.82,1.24-3.29,1.24s-3.5-.41-3.5-1.24v-48.4c0-2.68,1.24-3.5,3.91-3.5h133.25c2.88,0,3.91,1.24,3.91,3.91v47.99c0,.82-1.03,1.24-3.5,1.24s-2.88-.41-3.29-1.24c-12.77-30.89-19.77-45.31-40.57-45.31h-5.36v128.31c0,6.18.62,6.8,6.8,6.8h17.51c.82,0,1.24.82,1.24,3.29s-.41,3.29-1.24,3.29h-84.03c-.82,0-1.24-.82-1.24-3.29s.41-3.29,1.24-3.29Z"/>
      <path d="M735.85,187.42h8.86c6.18,0,6.8-.62,6.8-6.8V59.12c0-6.18-.62-6.8-6.8-6.8h-8.24c-.82,0-1.24-.62-1.24-3.29s.41-3.29,1.24-3.29h65.7c.82,0,1.24.62,1.24,3.29s-.41,3.29-1.24,3.29h-8.24c-6.18,0-6.8.62-6.8,6.8v49.22h53.34v-49.22c0-6.18-.62-6.8-6.8-6.8h-8.24c-.82,0-1.24-.62-1.24-3.29s.41-3.29,1.24-3.29h65.7c.82,0,1.24.62,1.24,3.29s-.41,3.29-1.24,3.29h-8.24c-6.18,0-6.8.62-6.8,6.8v121.51c0,6.18.62,6.8,6.8,6.8h8.86c.82,0,1.24.62,1.24,3.29s-.41,3.29-1.24,3.29h-66.93c-.82,0-1.24-.62-1.24-3.29s.41-3.29,1.24-3.29h8.86c6.18,0,6.8-.62,6.8-6.8v-65.49h-53.34v65.49c0,6.18.62,6.8,6.8,6.8h8.86c.82,0,1.24.62,1.24,3.29s-.41,3.29-1.24,3.29h-66.93c-.82,0-1.24-.62-1.24-3.29s.41-3.29,1.24-3.29Z"/>
      <path d="M980.1,43.26c39.34,0,72.91,32.13,72.91,76.61s-33.78,76.61-72.91,76.61-72.91-32.13-72.91-76.61,33.78-76.61,72.91-76.61ZM957.86,180.83c5.56,5.56,13.39,8.65,22.24,8.65s16.68-3.09,22.24-8.65c8.65-8.65,12.15-18.12,12.15-60.96s-3.5-52.31-12.15-60.96c-5.56-5.56-13.39-8.65-22.24-8.65s-16.68,3.09-22.24,8.65c-8.65,8.65-12.15,18.12-12.15,60.96s3.5,52.31,12.15,60.96Z"/>
      <path d="M1143.21,43.26c39.34,0,72.91,32.13,72.91,76.61s-33.78,76.61-72.91,76.61-72.91-32.13-72.91-76.61,33.78-76.61,72.91-76.61ZM1120.97,180.83c5.56,5.56,13.39,8.65,22.24,8.65s16.68-3.09,22.24-8.65c8.65-8.65,12.15-18.12,12.15-60.96s-3.5-52.31-12.15-60.96c-5.56-5.56-13.39-8.65-22.24-8.65s-16.68,3.09-22.24,8.65c-8.65,8.65-12.15,18.12-12.15,60.96s3.5,52.31,12.15,60.96Z"/>
      <path d="M1231.56,187.42h8.86c6.18,0,6.8-.62,6.8-6.8V59.12c0-6.18-.62-6.8-6.8-6.8h-8.44c-.82,0-1.24-.82-1.24-3.29s.41-3.29,1.24-3.29h69.61c36.04,0,73.94,29.24,73.94,74.14s-31.1,74.14-73.94,74.14h-70.02c-.82,0-1.24-.82-1.24-3.29s.41-3.29,1.24-3.29ZM1324.24,61.59c-7-7-14.62-9.27-25.74-9.27h-8.86c-6.18,0-6.8.62-6.8,6.8v121.51c0,6.18.62,6.8,6.8,6.8h8.86c11.12,0,18.74-2.27,25.74-9.27,8.65-8.65,12.77-22.04,12.77-58.28s-4.12-49.63-12.77-58.28Z"/>
    </g>
  </g>
  <g id="Layer_2" class="st2">
    <text class="st0" transform="translate(728.33 -489.18)"><tspan x="0" y="0">ADULTHOOD</tspan></text>
    <text class="st1" transform="translate(15.36 -127.11)"><tspan x="0" y="0">ADULTHOOD</tspan></text>
  </g>
</svg>