<?xml version="1.0" encoding="UTF-8"?>
<svg id="Layer_2" data-name="Layer 2" xmlns="http://www.w3.org/2000/svg" viewBox="0 0 671.34 84.94">
  <g fill="#47432A">
    <path d="M92.47,72.28c2.12-.96,3.74-2.64,4.85-5.03,1.11-2.39,2.05-5.17,2.82-8.36l11-48.55c.53-2.07.84-3.56.94-4.45.1-.89.14-1.48.14-1.77,0-1.3-.29-2.68-.87-4.12h17.73l14.98,76.04c.39,1.93.95,3.35,1.7,4.27.75.92,1.53,1.37,2.35,1.37s1.53-.48,2.13-1.45c.6-.97.9-2.36.9-4.2V9.33c0-1.69-.12-3.32-.36-4.88-.24-1.57-.84-3.05-1.81-4.45h18.28c4.38,0,8.36.99,11.93,2.97,3.57,1.98,6.61,4.63,9.12,7.96,2.51,3.33,4.44,7.18,5.79,11.54,1.35,4.37,2.03,8.94,2.03,13.71,0,4.2-.55,8.3-1.66,12.3-1.11,4-2.7,7.65-4.78,10.93-2.07,3.28-4.57,6.07-7.49,8.36-2.92,2.29-6.19,3.82-9.8,4.59,1-.43,1.82-1.93,2.44-4.49.62-2.56,1.11-5.75,1.47-9.59.36-3.83.61-8.05.75-12.66.14-4.61.22-9.2.22-13.78,0-4.24-.07-8.04-.22-11.4-.14-3.35-.41-6.2-.79-8.54-.38-2.34-.92-4.14-1.62-5.39-.69-1.25-1.57-1.88-2.62-1.88s-1.78.63-2.33,1.88c-.55,1.26-.97,3.06-1.26,5.43-.29,2.36-.46,5.22-.5,8.57-.05,3.35-.07,7.13-.07,11.32v29.74c0,3.47-.64,6.61-1.92,9.41-1.28,2.8-2.97,5.18-5.06,7.16-2.1,1.98-4.46,3.5-7.09,4.56-2.63,1.06-5.29,1.59-8,1.59-2.12,0-4.2-.34-6.22-1.01-2.03-.68-3.88-1.73-5.57-3.15-1.69-1.42-3.17-3.23-4.45-5.43-1.28-2.2-2.23-4.81-2.86-7.85l-3.04-15.12c-.34-1.45-1-2.62-1.99-3.51-.99-.89-2.11-1.66-3.36-2.32-1.26-.65-2.57-1.28-3.94-1.88-1.37-.6-2.59-1.36-3.65-2.28.48,2.75,1.06,5.41,1.74,7.99.68,2.58,1.3,5.01,1.88,7.27.53,2.27.88,4.06,1.05,5.39.17,1.33.25,2.35.25,3.08,0,.68-.06,1.41-.18,2.21-.12.8-.43,1.53-.94,2.21-.51.68-1.24,1.24-2.21,1.7-.97.46-2.29.69-3.98.69h-15.85ZM112.01,18.38c-1.06,2.75-1.71,5.21-1.95,7.38-.24,2.17-.36,4.05-.36,5.64,0,.63.01,1.24.04,1.84.02.6.06,1.22.11,1.85.19,1.69.75,3,1.66,3.94.92.94,2,1.75,3.26,2.42,1.25.68,2.59,1.31,4.02,1.92,1.42.6,2.71,1.39,3.87,2.35-.43-2.7-.89-5.39-1.37-8.07-.48-2.68-.98-5.21-1.48-7.6-.51-2.39-1.03-4.53-1.56-6.44-.53-1.9-1.04-3.44-1.52-4.59-.82-1.74-1.69-2.6-2.6-2.6s-1.62.65-2.1,1.95Z"/>
    <path d="M218.08,0c1.69,1.25,2.79,2.8,3.29,4.63.51,1.83.76,3.76.76,5.79,0,.58-.05,1.68-.14,3.29-.1,1.62-.51,3.97-1.23,7.05-.39,1.54-.78,3.1-1.19,4.67-.41,1.57-.86,3.15-1.34,4.74-.05.1-.07.18-.07.25s-.03.16-.07.25l-.07.29c-.05.1-.07.17-.07.22s-.03.12-.07.22l-.07.29-.22.87-.14.29c0,.19-.03.34-.07.43l-.07.36s-.07.1-.07.14l-.07.29c-.05.1-.07.17-.07.22s-.03.12-.07.22l-.07.29c-.05.1-.07.17-.07.22s-.03.12-.07.22l-.07.29c-.05.14-.1.29-.14.43-.05.15-.1.29-.15.43l-.07.36c-.05.1-.07.24-.07.43l-.14.29-.22.87-.07.29c-.05.1-.07.17-.07.22s-.02.12-.07.22l-.07.29c-.05.1-.07.17-.07.22s-.03.12-.07.22c-1.16,4-2.04,7.84-2.64,11.5-.6,3.67-.62,6.89-.04,9.66.58,2.77,1.95,4.99,4.12,6.66,2.17,1.66,5.47,2.5,9.91,2.5,1.54,0,2.98-.29,4.3-.87,1.33-.58,2.47-1.45,3.44-2.6.96-1.16,1.72-2.6,2.28-4.34.55-1.74.83-3.74.83-6.01V9.26c0-1.69-.06-3.3-.18-4.85-.12-1.54-.66-3.01-1.63-4.41h18.52c-.97,1.4-1.52,2.86-1.66,4.38-.15,1.52-.22,3.15-.22,4.88v63.02h-25.69c-3.47,0-6.76-.72-9.88-2.17-3.11-1.45-5.82-3.44-8.14-5.97-2.32-2.53-4.16-5.52-5.54-8.97-1.37-3.45-2.06-7.17-2.06-11.18V9.26c0-1.69-.07-3.3-.22-4.85-.14-1.54-.7-3.01-1.66-4.41h18.74Z"/>
    <path d="M261.85,10.42c0-2.07-.17-4.02-.51-5.82-.34-1.81-1.18-3.34-2.53-4.59h21.42c.92.63,1.72,1.48,2.42,2.57.7,1.08,1.12,2.23,1.27,3.43.05.24.07.51.07.8v.79c0,2.31-.72,4.72-2.17,7.23s-3.43,5.06-5.93,7.66c-1.21,1.25-2.4,2.51-3.58,3.76-1.18,1.25-2.28,2.53-3.29,3.83-1.01,1.3-1.88,2.64-2.6,4.01-.72,1.37-1.21,2.78-1.45,4.23-.19,1.16-.3,2.14-.33,2.96-.03.82-.04,1.35-.04,1.59,0,1.35.16,2.81.47,4.37.31,1.57.92,3.02,1.81,4.37.89,1.35,2.12,2.47,3.69,3.36,1.57.89,3.61,1.34,6.11,1.34h19.9c1.3,0,2.41-.1,3.33-.29.92-.19,1.68-.52,2.28-.98.6-.46,1.08-1.07,1.45-1.84.36-.77.64-1.74.83-2.89.05-.63.41-.94,1.09-.94.29,0,.54.11.76.33s.33.47.33.76v21.85h-47.68c1.35-1.3,2.17-2.86,2.46-4.67.29-1.81.43-3.68.43-5.61V10.42Z"/>
    <path d="M297.74,22.86c-.68-.1-1.01-.46-1.01-1.09V0h66.35c.96.68,1.78,1.54,2.46,2.6.68,1.06,1.08,2.2,1.23,3.4.29,2.36-.1,4.51-1.16,6.44-1.06,1.93-2.44,3.76-4.12,5.5-1.69,1.74-3.49,3.43-5.39,5.06-1.91,1.64-3.58,3.33-5.03,5.06s-2.46,3.59-3.04,5.57c-.58,1.98-.36,4.17.65,6.58.24-2.07.64-3.86,1.19-5.35.55-1.49,1.36-2.72,2.42-3.69,1.06-.96,2.37-1.66,3.94-2.1,1.57-.43,3.48-.65,5.75-.65h28.29c.63,0,1.08-.12,1.37-.36-1.45-1.78-3.12-3.48-5.03-5.1-1.91-1.62-3.7-3.28-5.39-4.99-1.69-1.71-3.06-3.53-4.12-5.46-1.06-1.93-1.45-4.1-1.16-6.51.19-1.21.6-2.34,1.23-3.4.63-1.06,1.47-1.93,2.53-2.6h18.88c-.97,1.4-1.52,2.88-1.66,4.45-.15,1.57-.22,3.2-.22,4.88v53.61c0,1.74.07,3.38.22,4.92.14,1.54.7,3.02,1.66,4.41h-18.88c-1.06-.68-1.91-1.54-2.53-2.6-.63-1.06-1.04-2.19-1.23-3.4-.29-2.36.08-4.51,1.12-6.44,1.04-1.93,2.39-3.74,4.05-5.43,1.66-1.69,3.44-3.35,5.32-4.99,1.88-1.64,3.55-3.33,4.99-5.06,1.45-1.74,2.48-3.62,3.11-5.64s.48-4.29-.43-6.8c-.24,2.07-.65,3.83-1.23,5.28-.58,1.45-1.4,2.63-2.46,3.55-1.06.92-2.38,1.59-3.94,2.03-1.57.43-3.46.65-5.68.65h-28.29c-.63,0-1.18.17-1.66.51,1.45,1.83,3.15,3.57,5.1,5.21,1.95,1.64,3.77,3.33,5.46,5.06,1.69,1.74,3.08,3.58,4.16,5.54,1.09,1.95,1.48,4.14,1.19,6.55-.15,1.21-.55,2.34-1.23,3.4-.68,1.06-1.5,1.93-2.46,2.6h-19.32c.96-1.4,1.57-2.86,1.81-4.38.24-1.52.36-3.15.36-4.88V24.02c0-1.59-.13-2.91-.4-3.94-.27-1.04-.7-1.86-1.3-2.46-.6-.6-1.4-1.02-2.39-1.27-.99-.24-2.23-.36-3.73-.36h-6.01c-3.28,0-5.5.63-6.66,1.88-1.16,1.26-1.62,2.96-1.37,5.1.24,2.15,1,4.63,2.28,7.45,1.28,2.82,2.71,5.8,4.3,8.94,1.59,3.14,3.17,6.31,4.74,9.51,1.57,3.21,2.76,6.28,3.58,9.22.82,2.94,1.09,5.64.8,8.1s-1.5,4.49-3.62,6.08h-20.19c1.54-1.35,2.5-2.97,2.86-4.85s.54-3.86.54-5.93V15.99h-12.59c-2.6,0-4.5.4-5.68,1.19-1.18.8-1.92,2.38-2.21,4.74-.05.29-.18.53-.4.72-.22.19-.47.27-.76.22Z"/>
    <path d="M429.64,72.28c-4.15,0-7.98-1-11.5-3-3.52-2-6.56-4.67-9.12-8-2.56-3.33-4.56-7.17-6.01-11.54-1.45-4.36-2.17-8.91-2.17-13.64s.73-9.43,2.21-13.82c1.47-4.39,3.48-8.22,6.04-11.5,2.56-3.28,5.59-5.9,9.12-7.85,3.52-1.95,7.33-2.93,11.43-2.93,3.71,0,7.31.88,10.78,2.64,3.47,1.76,6.55,4.23,9.23,7.42,2.68,3.18,4.82,6.98,6.44,11.4,1.62,4.41,2.42,9.3,2.42,14.65,0,5.06-.77,9.8-2.32,14.22-1.54,4.41-3.63,8.25-6.26,11.5-2.63,3.26-5.69,5.81-9.19,7.67-3.5,1.86-7.2,2.79-11.11,2.79ZM424.29,3.18c-1.45.29-2.67,1.07-3.65,2.35-.99,1.28-1.81,2.87-2.46,4.78-.65,1.91-1.13,4.04-1.45,6.4-.31,2.36-.48,4.79-.51,7.27-.03,2.48.06,4.93.25,7.34.19,2.41.48,4.61.87,6.58.87,4.73,1.93,9.04,3.18,12.95,1.25,3.91,2.66,7.24,4.23,9.99,1.57,2.75,3.24,4.81,5.03,6.19,1.78,1.38,3.64,1.87,5.57,1.48,1.64-.34,2.99-1.22,4.05-2.64,1.06-1.42,1.88-3.18,2.46-5.28.58-2.1.96-4.41,1.16-6.95.19-2.53.26-5.06.22-7.6-.05-2.53-.18-4.96-.4-7.27-.22-2.32-.45-4.32-.69-6.01-.63-3.76-1.52-7.49-2.68-11.18-1.16-3.69-2.52-6.97-4.09-9.84-1.57-2.87-3.29-5.11-5.17-6.73-1.88-1.62-3.86-2.23-5.93-1.84ZM459.52,13.75c2.6-4.24,5.85-7.6,9.73-10.06,3.88-2.46,8.24-3.69,13.06-3.69,3.67,0,7.24.88,10.71,2.64,3.47,1.76,6.55,4.22,9.23,7.38,2.68,3.16,4.82,6.96,6.44,11.4,1.62,4.44,2.42,9.33,2.42,14.69,0,5.06-.77,9.79-2.32,14.18-1.54,4.39-3.63,8.21-6.26,11.47-2.63,3.26-5.68,5.81-9.15,7.67-3.47,1.86-7.16,2.79-11.07,2.79-4.82,0-9.17-1.24-13.02-3.73-3.86-2.48-7.09-5.85-9.69-10.09,1.93-3.09,3.44-6.51,4.52-10.27,1.08-3.76,1.63-7.77,1.63-12.01s-.55-8.45-1.66-12.19c-1.11-3.74-2.63-7.13-4.56-10.17ZM476.81,3.18c-1.4.29-2.59,1.07-3.58,2.35-.99,1.28-1.81,2.86-2.46,4.74-.65,1.88-1.12,4-1.41,6.37-.29,2.36-.46,4.79-.51,7.27-.05,2.48.02,4.93.22,7.34.19,2.41.48,4.61.87,6.58.87,4.68,1.93,8.98,3.18,12.91,1.25,3.93,2.67,7.27,4.23,10.02,1.57,2.75,3.24,4.81,5.03,6.19,1.78,1.37,3.64,1.87,5.57,1.48,1.64-.34,2.98-1.22,4.02-2.64,1.04-1.42,1.86-3.18,2.46-5.28.6-2.1,1.01-4.41,1.23-6.95.22-2.53.3-5.06.25-7.6-.05-2.53-.18-4.96-.4-7.27-.22-2.32-.47-4.32-.76-6.01-.58-3.71-1.45-7.43-2.6-11.14-1.16-3.71-2.53-7.01-4.12-9.88-1.59-2.87-3.34-5.11-5.25-6.73-1.91-1.62-3.9-2.21-5.97-1.77Z"/>
    <path d="M513.06,72.28c.96-1.4,1.58-2.87,1.85-4.41.26-1.54.4-3.18.4-4.92V9.26c0-1.69-.13-3.3-.4-4.85-.27-1.54-.88-3.01-1.85-4.41h18.38c4.44,0,8.44.99,12.01,2.97,3.57,1.98,6.6,4.62,9.08,7.92,2.48,3.3,4.4,7.14,5.75,11.5,1.35,4.37,2.03,8.94,2.03,13.71s-.69,9.26-2.06,13.6c-1.37,4.34-3.33,8.19-5.86,11.54-2.53,3.35-5.57,6.03-9.12,8.03-3.55,2-7.49,3-11.83,3h-18.38ZM536.58,4.56c-.92,0-1.66.65-2.24,1.95-.58,1.3-1.04,3.15-1.37,5.54-.34,2.39-.58,5.26-.72,8.61-.14,3.35-.22,7.08-.22,11.18,0,9.17.29,16.11.87,20.84.58,4.73,1.81,7.09,3.69,7.09s3.22-2.35,3.87-7.05c.65-4.7.98-11.66.98-20.87,0-4.1-.07-7.83-.22-11.18-.14-3.35-.4-6.22-.76-8.61-.36-2.39-.86-4.23-1.48-5.54-.63-1.3-1.42-1.95-2.39-1.95Z"/>
  </g>
  <g fill="#47432A">
    <path d="M565.44,12.32v-7.35h-2.63v-1.5h7.03v1.5h-2.62v7.35h-1.79Z"/>
    <path d="M570.98,12.32V3.47h2.67l1.61,6.04,1.59-6.04h2.68v8.85h-1.66v-6.97l-1.76,6.97h-1.72l-1.75-6.97v6.97h-1.66Z"/>
  </g>
</svg>