<svg width="672" height="85" viewBox="0 0 672 85" fill="none" xmlns="http://www.w3.org/2000/svg">
<g clip-path="url(#clip0_2_9)">
<path d="M51.55 83.76L47.72 70.7H26.71L22.88 83.76H0L24.84 12.08H50.76L75.6 83.76H51.54H51.55ZM37.21 35.26L31.81 53.43H42.61L37.21 35.26Z" fill="#47432A"/>
<path d="M108.6 83.76H81.8899V12.08H108.6C132.17 12.08 149.25 24.65 149.25 47.82C149.25 70.99 130.59 83.76 108.6 83.76ZM108.6 30.84H104.87V65.01H108.6C119.4 65.01 125.68 58.14 125.68 47.83C125.68 37.52 118.71 30.84 108.6 30.84Z" fill="#47432A"/>
<path d="M191.96 84.94C172.13 84.94 157.2 74.73 157.2 50.77V12.08H181.16V53.22C181.16 60.98 185.28 65.89 191.96 65.89C198.64 65.89 202.76 60.98 202.76 53.22V12.08H226.72V50.77C226.72 74.73 211.8 84.94 191.96 84.94Z" fill="#47432A"/>
<path d="M237.62 83.76V12.08H260.6V65.5H284.07V83.76H237.63H237.62Z" fill="#47432A"/>
<path d="M317.65 30.35V83.77H294.67V30.35H280.43V12.08H331.88V30.34H317.64L317.65 30.35Z" fill="#47432A"/>
<path d="M381.76 83.76V58.72H363.69V83.76H339.73V12.08H363.69V38.49H381.76V12.08H405.72V83.76H381.76Z" fill="#47432A"/>
<path d="M452.85 84.94C430.36 84.94 414.36 69.43 414.36 48.02C414.36 26.61 430.56 10.9 453.05 10.9C475.54 10.9 491.54 26.41 491.54 47.82C491.54 69.23 475.34 84.94 452.85 84.94ZM452.85 29.95C444.11 29.95 437.83 37.51 437.83 47.82C437.83 58.13 444.31 65.89 453.05 65.89C461.79 65.89 468.07 58.33 468.07 48.02C468.07 37.71 461.59 29.95 452.85 29.95Z" fill="#47432A"/>
<path d="M535.72 84.94C513.23 84.94 497.23 69.43 497.23 48.02C497.23 26.61 513.43 10.9 535.92 10.9C558.41 10.9 574.41 26.41 574.41 47.82C574.41 69.23 558.21 84.94 535.72 84.94ZM535.72 29.95C526.98 29.95 520.7 37.51 520.7 47.82C520.7 58.13 527.18 65.89 535.92 65.89C544.66 65.89 550.94 58.33 550.94 48.02C550.94 37.71 544.46 29.95 535.72 29.95Z" fill="#47432A"/>
<path d="M609.76 83.76H583.05V12.08H609.76C633.33 12.08 650.41 24.65 650.41 47.82C650.41 70.99 631.75 83.76 609.76 83.76ZM609.76 30.84H606.03V65.01H609.76C620.56 65.01 626.84 58.14 626.84 47.83C626.84 37.52 619.87 30.84 609.76 30.84Z" fill="#47432A"/>
<path d="M644.59 3.59V17.4H640.39V3.59H635.47V0H649.5V3.59H644.58H644.59Z" fill="#47432A"/>
<path d="M667.2 17.4L667.3 5.09H667.23L662.71 17.4H659.76L655.36 5.09H655.29L655.39 17.4H651.43V0H657.41L661.37 11.16H661.47L665.26 0H671.34V17.4H667.21H667.2Z" fill="#47432A"/>
</g>
<defs>
<clipPath id="clip0_2_9">
<rect width="671.33" height="84.94" fill="white"/>
</clipPath>
</defs>
</svg>
